# xmcd
#
# Track frame offsets: 
#        150
#        15497
#        28965
#        42682
#        57627
#        69557
#        82469
#        94769
#        104863
#        121932
#        133725
#        150839
#        164640
#        177189
#        187066
#        202303
#        213653
#
# Disc length: 3020 seconds
#
# Revision: 0
# Processed by: cddbd v1.5.2PL0 Copyright (c) Steve Scherf et al.
# Submitted via: ExactAudioCopy v0.99pb4
#
DISCID=0f0bca11
DTITLE=Interstate 40 Rhythm Kings - Livin' The Wild Life
DYEAR=2008
DGENRE=Blues
TTITLE0=Ain't That Right
TTITLE1=Further On Up The Road
TTITLE2=Wild Life
TTITLE3=It's Your Voodoo Working
TTITLE4=Lonely No More
TTITLE5=Don't Do It
TTITLE6=I Didn't Want To Do It
TTITLE7=Do Right Baby
TTITLE8=Suffering Pain
TTITLE9=Think
TTITLE10=Trouble Trouble
TTITLE11=I Gotta Go Home
TTITLE12=White Wild Cat
TTITLE13=You'd Better Find
TTITLE14=All Around The World
TTITLE15=Baby I'm Gone
TTITLE16=What'cha Gonna Do
EXTD=
EXTT0=
EXTT1=
EXTT2=
EXTT3=
EXTT4=
EXTT5=
EXTT6=
EXTT7=
EXTT8=
EXTT9=
EXTT10=
EXTT11=
EXTT12=
EXTT13=
EXTT14=
EXTT15=
EXTT16=
PLAYORDER=
